Chuck Norris is John T. Booker and Booker is fighting back. The C.I.A. can't afford John T. Booker... alive.

An ex-US Army commando must find the reason why his comrades from his unit are being systematically murdered before he is next.

The former leader of a commando rescue attempt into Vietnam tries to discover why his squad members are being murdered, one-by-one, after the war is over.


IMDB: http://www.imdb.com/title/tt0079227/
 
http://www.abload.de/img/poster19ssg.jpg 
http://www.abload.de/img/poster2xqoj.jpg 
http://www.abload.de/img/poster3qoa9.jpg


General
Complete name                    : Good.Guys.Wear.Black.1978.DVDRip.XviD.AC3-SNS.avi
Format                           : AVI
Format/Info                      : Audio Video Interleave
File size                        : 1.46 GiB
Duration                         : 1h 35mn
Overall bit rate                 : 2 185 Kbps
Writing application              : VirtualDubMod 1.5.4.1 (build 2178/release)
Writing library                  : VirtualDubMod build 2178/release

Video
ID                               : 0
Format                           : MPEG-4 Visual
Format profile                   : Advanced Simple@L5
Format settings, BVOP            : Yes
Format settings, QPel            : No
Format settings, GMC             : No warppoints
Format settings, Matrix          : Custom
Codec ID                         : XVID
Codec ID/Hint                    : XviD
Duration                         : 1h 35mn
Bit rate                         : 1 986 Kbps
Width                            : 720 pixels
Height                           : 416 pixels
Display aspect ratio             : 16:9
Frame rate                       : 25.000 fps
Resolution                       : 8 bits
Colorimetry                      : 4:2:0
Scan type                        : Progressive
Bits/(Pixel*Frame)               : 0.265
Stream size                      : 1.33 GiB (91%)
Writing library                  : XviD 1.2.1 (UTC 2008-12-04)

Audio
ID                               : 1
Format                           : AC-3
Format/Info                      : Audio Coding 3
Format profile                   : Dolby Digital
Format_Settings_ModeExtension    : CM (complete main)
Codec ID                         : 2000
Duration                         : 1h 35mn
Bit rate mode                    : Constant
Bit rate                         : 192 Kbps
Channel(s)                       : 2 channels
Channel positions                : Front: L R
Sampling rate                    : 48.0 KHz
Stream size                      : 131 MiB (9%)
Alignment                        : Aligned on interleaves
Interleave, duration             : 96 ms (2.40 video frames)
Interleave, preload duration     : 96 ms
Language                         : English

Source: DVD5, PAL, interlaced
Source resolution: 720x576
Source aspect ratio: 16:9